# Blender v2.83.1 OBJ File: 'arrow.blend'
# www.blender.org
o Curve.001
v -0.051080 -0.287953 0.037420
v -0.051080 0.009798 0.037420
v -0.173824 0.009798 0.037420
v -0.003112 0.304726 0.037420
v 0.170422 0.009798 0.037420
v 0.047679 0.009798 0.037420
v 0.047679 -0.287953 0.037420
v -0.051080 -0.287953 -0.037580
v -0.051080 0.009798 -0.037580
v -0.173824 0.009798 -0.037580
v -0.003112 0.304726 -0.037580
v 0.170422 0.009798 -0.037580
v 0.047679 0.009798 -0.037580
v 0.047679 -0.287953 -0.037580
vt 0.166667 0.000000
vt 0.500000 0.000000
vt 0.333333 0.000000
vt 1.000000 0.000000
vt 0.000000 0.000000
vt 0.833333 0.000000
vt 0.666667 0.000000
vt 0.166667 0.000000
vt 0.333333 0.000000
vt 0.500000 0.000000
vt 1.000000 0.000000
vt 0.000000 0.000000
vt 0.833333 0.000000
vt 0.666667 0.000000
vn 0.0000 -0.0000 1.0000
vn -0.0000 0.0000 -1.0000
vn 0.0000 -1.0000 0.0000
vn -0.8655 0.5010 0.0000
vn -1.0000 0.0000 0.0000
vn 1.0000 0.0000 0.0000
vn 0.8619 0.5071 0.0000
usemtl Material.002
s off
f 2/1/1 4/2/1 3/3/1
f 7/4/1 2/1/1 1/5/1
f 7/4/1 4/2/1 2/1/1
f 7/4/1 6/6/1 4/2/1
f 6/6/1 5/7/1 4/2/1
f 9/8/2 10/9/2 11/10/2
f 14/11/2 8/12/2 9/8/2
f 14/11/2 9/8/2 11/10/2
f 14/11/2 11/10/2 13/13/2
f 13/13/2 11/10/2 12/14/2
f 2/1/3 3/3/3 10/9/3 9/8/3
f 3/3/4 4/2/4 11/10/4 10/9/4
f 7/4/3 1/5/3 8/12/3 14/11/3
f 1/5/5 2/1/5 9/8/5 8/12/5
f 6/6/6 7/4/6 14/11/6 13/13/6
f 5/7/3 6/6/3 13/13/3 12/14/3
f 4/2/7 5/7/7 12/14/7 11/10/7
